<svg width="25" height="32" viewBox="0 0 25 32" fill="none" xmlns="http://www.w3.org/2000/svg">
<g clip-path="url(#clip0_2_342)">
<path fill-rule="evenodd" clip-rule="evenodd" d="M21.5756 9.51906C21.4331 9.34851 21.2223 9.24996 21 9.25H5.87625L5.41781 6.73187C5.28823 6.01862 4.66711 5.5001 3.94219 5.5H2.25C1.83579 5.5 1.5 5.83579 1.5 6.25C1.5 6.66421 1.83579 7 2.25 7H3.9375L6.33375 20.1522C6.40434 20.5422 6.57671 20.9067 6.83344 21.2087C5.84996 22.1273 5.72046 23.6409 6.5336 24.7132C7.34675 25.7855 8.83911 26.0692 9.98899 25.37C11.1389 24.6709 11.5738 23.2154 10.9959 22H15.2541C15.0863 22.3513 14.9995 22.7357 15 23.125C15 24.5747 16.1753 25.75 17.625 25.75C19.0747 25.75 20.25 24.5747 20.25 23.125C20.25 21.6753 19.0747 20.5 17.625 20.5H8.54719C8.18472 20.4999 7.87417 20.2407 7.80937 19.8841L7.51219 18.25H18.3872C19.4746 18.2498 20.4063 17.4721 20.6006 16.4022L21.7406 10.1341C21.7797 9.91473 21.7192 9.68938 21.5756 9.51906ZM17.625 22C18.2463 22 18.75 22.5037 18.75 23.125C18.75 23.7463 18.2463 24.25 17.625 24.25C17.0037 24.25 16.5 23.7463 16.5 23.125C16.5 22.5037 17.0037 22 17.625 22ZM8.625 22C9.24632 22 9.75 22.5037 9.75 23.125C9.75 23.7463 9.24632 24.25 8.625 24.25C8.00368 24.25 7.5 23.7463 7.5 23.125C7.5 22.5037 8.00368 22 8.625 22Z" fill="#121717"/>
</g>
<defs>
<clipPath id="clip0_2_342">
<rect width="24" height="24" fill="white" transform="translate(0.75 4)"/>
</clipPath>
</defs>
</svg>
