<?xml version="1.0" standalone="no"?>
<!DOCTYPE svg PUBLIC "-//W3C//DTD SVG 20010904//EN"
 "http://www.w3.org/TR/2001/REC-SVG-20010904/DTD/svg10.dtd">
<svg version="1.0" xmlns="http://www.w3.org/2000/svg"
 width="1024.000000pt" height="1024.000000pt" viewBox="0 0 1024.000000 1024.000000"
 preserveAspectRatio="xMidYMid meet">

<g transform="translate(0.000000,1024.000000) scale(0.100000,-0.100000)"
fill="#000000" stroke="none">
<path d="M4956 8429 c-129 -30 -283 -155 -345 -278 -32 -62 -60 -168 -61 -223
0 -14 12 -40 26 -57 20 -24 34 -31 63 -31 53 0 80 32 97 116 39 183 175 297
354 297 181 1 316 -130 328 -316 3 -58 0 -84 -19 -132 -30 -81 -117 -166 -220
-218 -113 -56 -123 -74 -127 -222 l-4 -120 -117 -53 c-246 -110 -342 -186
-455 -357 -152 -229 -264 -355 -397 -445 -34 -23 -375 -209 -758 -412 -383
-203 -726 -387 -763 -409 -145 -85 -225 -190 -249 -327 -14 -80 -6 -127 27
-149 24 -15 30 -15 93 5 l67 22 2616 0 c2589 0 2615 0 2673 -20 76 -26 97 -25
125 5 21 22 22 31 17 104 -6 101 -38 172 -108 246 -69 74 -117 103 -396 251
-934 495 -1227 653 -1290 696 -109 75 -225 203 -343 378 -151 224 -200 268
-405 372 l-165 83 0 82 0 82 72 38 c282 148 387 458 248 733 -58 114 -158 200
-287 246 -54 19 -87 23 -163 23 -52 -1 -113 -5 -134 -10z m544 -2042 c1085
-587 1942 -1055 1954 -1068 6 -5 -855 -9 -2332 -9 -1288 0 -2342 2 -2342 4 0
3 53 34 118 69 64 36 266 147 447 247 342 189 1030 565 1500 821 l270 147 40
-23 c22 -13 177 -97 345 -188z"/>
<path d="M1979 4362 c-173 -46 -306 -187 -344 -367 -42 -197 3 -395 116 -520
176 -192 542 -170 665 41 34 58 31 108 -7 112 -23 3 -33 -6 -65 -55 -56 -83
-122 -116 -221 -111 -60 3 -78 8 -115 34 -59 41 -114 117 -140 194 -31 89 -33
323 -3 414 51 160 181 226 313 160 56 -28 94 -78 114 -151 13 -49 25 -63 53
-63 35 0 43 18 58 133 15 122 20 113 -79 155 -102 43 -236 52 -345 24z"/>
<path d="M3678 4364 c-78 -18 -131 -47 -191 -102 -262 -244 -201 -719 110
-864 57 -27 82 -33 160 -36 122 -6 207 19 295 86 288 218 251 726 -64 881
-100 49 -204 61 -310 35z m195 -120 c52 -37 102 -109 125 -183 25 -83 24 -342
-2 -429 -53 -172 -200 -223 -322 -110 -90 83 -129 218 -121 423 6 185 40 269
125 315 55 30 139 23 195 -16z"/>
<path d="M8150 4369 c-79 -15 -183 -74 -239 -135 -84 -92 -141 -240 -141 -369
0 -54 22 -171 42 -220 33 -83 108 -176 179 -221 134 -84 352 -88 531 -7 l58
26 0 155 0 155 35 33 c19 18 35 42 35 53 0 21 -5 21 -194 21 -189 0 -195 -1
-201 -21 -9 -27 8 -42 62 -58 24 -6 48 -21 54 -32 6 -13 9 -66 7 -140 -4 -151
-6 -154 -122 -154 -78 0 -88 2 -128 30 -94 66 -133 197 -125 419 6 170 28 255
84 317 49 54 87 72 154 72 104 0 161 -42 232 -173 26 -49 29 -51 65 -48 22 2
37 8 36 16 -1 6 -2 57 -2 113 l-2 100 -54 25 c-104 48 -252 65 -366 43z"/>
<path d="M2527 4341 c-6 -25 10 -51 32 -51 10 0 30 -9 45 -21 l26 -20 0 -378
c0 -287 -3 -381 -12 -393 -7 -9 -30 -21 -51 -28 -35 -11 -38 -15 -35 -43 l3
-32 334 -3 c184 -1 338 1 342 5 4 5 16 72 25 149 15 121 16 144 4 158 -26 32
-53 15 -90 -56 -67 -128 -113 -158 -240 -158 l-80 0 0 388 c0 430 -3 407 64
429 35 11 52 34 43 57 -6 14 -30 16 -206 16 -185 0 -199 -1 -204 -19z"/>
<path d="M4335 4338 c-7 -36 -23 -272 -18 -280 2 -5 14 -8 27 -8 18 0 28 14
54 69 46 99 114 151 200 151 l22 0 -1 -382 c0 -211 -4 -392 -8 -403 -5 -11
-27 -27 -50 -35 -24 -8 -42 -18 -42 -22 1 -5 1 -19 1 -33 l0 -25 198 2 197 3
0 29 c0 24 -6 31 -32 40 -71 24 -68 4 -71 438 l-3 391 48 -7 c73 -9 119 -48
167 -138 37 -69 44 -78 70 -78 l29 0 -7 146 c-3 80 -9 150 -12 155 -3 5 -173
9 -384 9 l-380 0 -5 -22z"/>
<path d="M5194 4345 c-10 -26 4 -44 45 -61 28 -11 43 -24 50 -46 15 -43 15
-704 0 -746 -9 -25 -19 -34 -51 -42 -36 -10 -39 -13 -36 -43 l3 -32 187 -3
188 -2 6 25 c8 31 -7 51 -46 59 -44 8 -50 36 -50 212 l0 154 190 0 190 0 0
-149 c0 -175 -8 -205 -56 -221 -31 -11 -35 -15 -32 -43 l3 -32 185 0 185 0 3
32 c3 30 0 33 -38 43 -29 8 -44 18 -50 36 -6 14 -10 181 -10 388 0 398 -1 390
61 411 28 10 34 17 34 41 l0 29 -187 3 -188 2 0 -30 c0 -26 6 -33 35 -46 21
-8 40 -25 45 -40 6 -14 10 -93 10 -175 l0 -149 -190 0 -190 0 0 149 c0 82 4
161 10 176 6 15 24 32 44 40 41 17 49 28 41 55 -6 19 -15 20 -196 20 -159 0
-191 -2 -195 -15z"/>
<path d="M6290 4330 c0 -24 6 -33 27 -41 66 -25 63 -4 63 -419 0 -407 0 -404
-55 -418 -26 -7 -30 -13 -30 -43 l0 -34 179 -3 c185 -3 206 1 206 39 0 12 -16
26 -47 41 l-48 23 -3 389 c-1 274 1 393 9 402 6 7 26 16 45 20 34 6 55 39 39
63 -4 7 -73 11 -196 11 l-189 0 0 -30z"/>
<path d="M6797 4353 c-4 -3 -7 -19 -7 -34 0 -21 7 -29 32 -38 72 -25 68 -4 68
-402 0 -204 -4 -369 -10 -383 -5 -14 -27 -34 -50 -46 -35 -18 -41 -25 -38 -48
l3 -27 160 0 160 0 0 29 c0 26 -5 31 -43 44 -76 25 -77 27 -80 354 -2 158 1
288 5 287 4 0 125 -158 268 -350 143 -192 268 -357 277 -366 11 -10 26 -13 43
-9 l25 6 0 431 0 430 25 23 c14 13 39 27 57 32 28 8 33 15 33 39 l0 30 -162 3
c-154 2 -162 2 -168 -18 -9 -27 -2 -35 51 -60 27 -14 49 -32 55 -47 5 -14 8
-124 7 -246 l-3 -221 -215 286 c-118 157 -225 291 -238 297 -25 12 -244 15
-255 4z"/>
<path d="M3150 2931 c-159 -52 -233 -195 -185 -358 23 -76 74 -122 213 -192
131 -66 184 -113 202 -182 13 -47 5 -113 -17 -147 -21 -34 -79 -55 -126 -48
-90 15 -141 60 -200 178 -29 56 -35 63 -62 63 l-30 0 2 -70 c1 -38 5 -98 8
-132 l6 -61 51 -22 c222 -95 471 -42 549 118 19 38 24 64 24 132 0 149 -50
210 -254 314 -172 88 -199 120 -189 228 4 40 12 57 32 75 55 47 199 20 242
-45 9 -14 27 -51 39 -82 20 -52 23 -55 56 -55 l34 0 9 108 c6 73 6 111 -1 118
-6 6 -42 22 -79 36 -56 21 -91 26 -184 29 -63 2 -126 0 -140 -5z"/>
<path d="M4905 2923 c-157 -56 -266 -179 -310 -348 -19 -76 -19 -214 0 -290
93 -364 505 -493 759 -239 98 98 149 233 148 392 -2 211 -104 387 -269 465
-61 28 -79 32 -173 34 -81 3 -116 -1 -155 -14z m191 -97 c134 -63 200 -252
175 -505 -12 -125 -30 -183 -73 -235 -75 -91 -202 -88 -286 9 -76 86 -102 182
-102 380 0 223 36 314 140 359 49 21 87 19 146 -8z"/>
<path d="M3707 2906 c-3 -7 -8 -74 -12 -150 l-8 -136 27 0 c22 0 31 10 57 63
17 34 41 73 53 85 30 34 90 62 131 62 l35 0 0 -388 c0 -428 1 -424 -63 -440
-27 -7 -33 -14 -35 -40 l-3 -32 196 0 196 0 -3 32 c-2 26 -8 33 -35 40 -62 16
-63 24 -63 448 l0 380 35 0 c76 0 135 -49 189 -157 30 -59 38 -67 67 -58 21 7
21 11 15 139 -4 72 -9 139 -12 149 -5 16 -32 17 -384 17 -308 0 -379 -2 -383
-14z"/>
<path d="M5597 2914 c-19 -19 -5 -46 31 -61 77 -32 72 -2 72 -427 0 -210 -4
-386 -8 -392 -10 -16 -48 -34 -70 -34 -27 0 -45 -25 -37 -50 6 -20 12 -20 198
-18 l192 3 3 28 c3 23 -2 29 -28 38 -17 6 -35 19 -40 29 -6 10 -10 92 -10 181
l0 162 45 -6 c25 -2 55 -13 65 -22 11 -10 63 -102 115 -205 62 -121 103 -191
117 -199 15 -7 58 -11 123 -9 95 3 100 4 103 25 2 16 -12 37 -50 75 -44 43
-69 84 -132 210 -43 86 -77 161 -75 166 2 5 24 25 49 44 66 50 103 128 103
215 0 105 -43 173 -143 225 -44 22 -54 23 -330 26 -157 2 -289 0 -293 -4z
m471 -101 c50 -37 67 -80 67 -168 0 -67 -4 -86 -23 -118 -33 -52 -67 -67 -152
-67 l-70 0 0 183 c0 101 3 187 8 191 14 16 143 -1 170 -21z"/>
<path d="M6560 2892 c0 -23 7 -31 38 -45 22 -9 44 -28 50 -42 9 -18 12 -136
12 -394 0 -348 -1 -369 -19 -385 -10 -9 -32 -21 -47 -25 -24 -6 -29 -13 -29
-37 l0 -29 350 0 350 0 12 70 c6 39 15 100 19 137 l6 67 -28 7 c-30 8 -36 2
-98 -91 -23 -35 -49 -58 -86 -78 -49 -25 -62 -27 -142 -25 l-89 3 -2 183 -2
182 86 0 c95 0 125 -14 154 -71 12 -22 23 -29 44 -29 36 0 43 17 31 81 -5 27
-7 83 -3 123 5 68 4 74 -14 80 -29 9 -52 -2 -69 -35 -22 -44 -62 -59 -151 -59
l-78 0 2 177 2 178 86 3 c142 5 193 -19 247 -114 25 -46 34 -54 59 -54 17 0
32 6 35 15 3 8 -2 63 -12 122 l-19 108 -347 3 -348 2 0 -28z"/>
</g>
</svg>
