<svg width="25" height="32" viewBox="0 0 25 32" fill="none" xmlns="http://www.w3.org/2000/svg">
<g clip-path="url(#clip0_2_335)">
<path fill-rule="evenodd" clip-rule="evenodd" d="M21.7806 24.4694L17.0866 19.7762C19.9129 16.383 19.5704 11.3669 16.3091 8.38935C13.0478 5.41176 8.02134 5.526 4.89867 8.64867C1.776 11.7713 1.66176 16.7978 4.63935 20.0591C7.61693 23.3204 12.633 23.6629 16.0262 20.8366L20.7194 25.5306C21.0124 25.8237 21.4876 25.8237 21.7806 25.5306C22.0737 25.2376 22.0737 24.7624 21.7806 24.4694ZM4 14.5C4 10.7721 7.02208 7.75 10.75 7.75C14.4779 7.75 17.5 10.7721 17.5 14.5C17.5 18.2279 14.4779 21.25 10.75 21.25C7.02379 21.2459 4.00413 18.2262 4 14.5Z" fill="#61828A"/>
</g>
<defs>
<clipPath id="clip0_2_335">
<rect width="24" height="24" fill="white" transform="translate(0.25 4)"/>
</clipPath>
</defs>
</svg>
